<?xml version="1.0" standalone="no"?><!DOCTYPE svg PUBLIC "-//W3C//DTD SVG 1.1//EN" "http://www.w3.org/Graphics/SVG/1.1/DTD/svg11.dtd"><svg t="1761030063559" class="icon" viewBox="0 0 1024 1024" version="1.1" xmlns="http://www.w3.org/2000/svg" p-id="1178" xmlns:xlink="http://www.w3.org/1999/xlink" width="200" height="200"><path d="M955.64684115 323.24406932c-34.71828355 0-63.1241519 28.40586836-63.12415191 63.12415191V761.95692509c0 69.43656711-56.81173672 126.24830383-126.24830382 126.24830382H261.28117014c-69.43656711 0-126.24830383-56.81173672-126.24830382-126.24830382V256.96370981c0-69.43656711 56.81173672-126.24830383 126.24830382-126.24830382h375.58870386c34.71828355 0 63.1241519-28.40586836 63.12415191-63.12415191s-28.40586836-63.1241519-63.12415191-63.12415192H261.28117014c-138.8731342 0-252.49660764 113.62347344-252.49660765 252.49660765v504.99321528c0 138.8731342 113.62347344 252.49660764 252.49660765 252.49660765h504.99321528c138.8731342 0 252.49660764-113.62347344 252.49660765-252.49660765V386.36822123c0-34.71828355-28.40586836-63.1241519-63.12415192-63.12415191z" fill="#2c2c2c" p-id="1179"></path><path d="M469.59087145 569.42826176c25.24966077 25.24966077 63.1241519 25.24966077 88.37381266 0l362.96387349-362.96387348c25.24966077-25.24966077 25.24966077-63.1241519 0-88.37381268-25.24966077-25.24966077-63.1241519-25.24966077-88.37381268 0L469.59087145 481.05444909c-25.24966077 25.24966077-25.24966077 63.1241519 0 88.37381267z" fill="#2c2c2c" p-id="1180"></path></svg>